<?xml version="1.0" encoding="UTF-8" standalone="no"?><svg xmlns="http://www.w3.org/2000/svg" xmlns:xlink="http://www.w3.org/1999/xlink" contentScriptType="application/ecmascript" contentStyleType="text/css" height="702px" preserveAspectRatio="none" style="width:388px;height:702px;" version="1.1" viewBox="0 0 388 702" width="388px" zoomAndPan="magnify"><defs><filter height="300%" id="f1djw4ewxetenf" width="300%" x="-1" y="-1"><feGaussianBlur result="blurOut" stdDeviation="2.0"/><feColorMatrix in="blurOut" result="blurOut2" type="matrix" values="0 0 0 0 0 0 0 0 0 0 0 0 0 0 0 0 0 0 .4 0"/><feOffset dx="4.0" dy="4.0" in="blurOut2" result="blurOut3"/><feBlend in="SourceGraphic" in2="blurOut3" mode="normal"/></filter></defs><g><!--MD5=[b3c0514fa69bffb9c22fb6650bde9461]
class customer--><rect fill="#FEFECE" filter="url(#f1djw4ewxetenf)" height="92.9457" id="customer" style="stroke: #A80036; stroke-width: 1.5;" width="132" x="71.5" y="8"/><ellipse cx="107.65" cy="24" fill="#ADD1B2" rx="11" ry="11" style="stroke: #A80036; stroke-width: 1.0;"/><path d="M111.7594,30 L104.0406,30 L104.0406,17.6094 L111.7594,17.6094 L111.7594,19.7656 L106.4938,19.7656 L106.4938,22.4375 L111.2594,22.4375 L111.2594,24.5938 L106.4938,24.5938 L106.4938,27.8438 L111.7594,27.8438 L111.7594,30 Z "/><text fill="#000000" font-family="sans-serif" font-size="12" lengthAdjust="spacingAndGlyphs" textLength="53" x="126.35" y="28.656">customer</text><line style="stroke: #A80036; stroke-width: 1.5;" x1="72.5" x2="202.5" y1="40" y2="40"/><text fill="#FFD700" font-family="sans-serif" font-size="11" font-weight="bold" lengthAdjust="spacingAndGlyphs" textLength="14" x="77.5" y="55.7589">PK</text><text fill="#000000" font-family="sans-serif" font-size="11" lengthAdjust="spacingAndGlyphs" textLength="103" x="94.5" y="55.7589">cust_no    : INTEGER</text><line style="stroke: #A80036; stroke-width: 1.0;" x1="72.5" x2="202.5" y1="62.9819" y2="62.9819"/><text fill="#000000" font-family="sans-serif" font-size="11" lengthAdjust="spacingAndGlyphs" textLength="100" x="77.5" y="78.7408">cust_name     : TEXT</text><text fill="#000000" font-family="sans-serif" font-size="11" lengthAdjust="spacingAndGlyphs" textLength="89" x="77.5" y="93.7227">cust_city     : TEXT</text><!--MD5=[fd3ef773e1efeac34510dbd71b762cda]
class vehicle--><rect fill="#FEFECE" filter="url(#f1djw4ewxetenf)" height="122.9094" id="vehicle" style="stroke: #A80036; stroke-width: 1.5;" width="129" x="6" y="180"/><ellipse cx="47.1" cy="196" fill="#ADD1B2" rx="11" ry="11" style="stroke: #A80036; stroke-width: 1.0;"/><path d="M51.2094,202 L43.4906,202 L43.4906,189.6094 L51.2094,189.6094 L51.2094,191.7656 L45.9438,191.7656 L45.9438,194.4375 L50.7094,194.4375 L50.7094,196.5938 L45.9438,196.5938 L45.9438,199.8438 L51.2094,199.8438 L51.2094,202 Z "/><text fill="#000000" font-family="sans-serif" font-size="12" lengthAdjust="spacingAndGlyphs" textLength="39" x="66.9" y="200.656">vehicle</text><line style="stroke: #A80036; stroke-width: 1.5;" x1="7" x2="134" y1="212" y2="212"/><text fill="#FFD700" font-family="sans-serif" font-size="11" font-weight="bold" lengthAdjust="spacingAndGlyphs" textLength="14" x="12" y="227.7589">PK</text><text fill="#000000" font-family="sans-serif" font-size="11" lengthAdjust="spacingAndGlyphs" textLength="46" x="29" y="227.7589">plate    --</text><text fill="#808080" font-family="sans-serif" font-size="11" font-style="italic" lengthAdjust="spacingAndGlyphs" textLength="11" x="12" y="242.7408">FK</text><text fill="#000000" font-family="sans-serif" font-size="11" lengthAdjust="spacingAndGlyphs" textLength="103" x="26" y="242.7408">cust_no    : INTEGER</text><text fill="#000000" font-family="sans-serif" font-size="11" lengthAdjust="spacingAndGlyphs" textLength="88" x="12" y="257.7227">make          : TEXT</text><text fill="#000000" font-family="sans-serif" font-size="11" lengthAdjust="spacingAndGlyphs" textLength="90" x="12" y="272.7046">model         : TEXT</text><text fill="#000000" font-family="sans-serif" font-size="11" lengthAdjust="spacingAndGlyphs" textLength="104" x="12" y="287.6865">year          : INTEGER</text><line style="stroke: #A80036; stroke-width: 1.5;" x1="7" x2="134" y1="294.9094" y2="294.9094"/><!--MD5=[23e253f88c0002be99eb11ebad4c98e8]
class mechanic--><rect fill="#FEFECE" filter="url(#f1djw4ewxetenf)" height="92.9457" id="mechanic" style="stroke: #A80036; stroke-width: 1.5;" width="135" x="242" y="389.5"/><ellipse cx="279.05" cy="405.5" fill="#ADD1B2" rx="11" ry="11" style="stroke: #A80036; stroke-width: 1.0;"/><path d="M283.1594,411.5 L275.4406,411.5 L275.4406,399.1094 L283.1594,399.1094 L283.1594,401.2656 L277.8938,401.2656 L277.8938,403.9375 L282.6594,403.9375 L282.6594,406.0938 L277.8938,406.0938 L277.8938,409.3438 L283.1594,409.3438 L283.1594,411.5 Z "/><text fill="#000000" font-family="sans-serif" font-size="12" lengthAdjust="spacingAndGlyphs" textLength="54" x="297.95" y="410.156">mechanic</text><line style="stroke: #A80036; stroke-width: 1.5;" x1="243" x2="376" y1="421.5" y2="421.5"/><text fill="#FFD700" font-family="sans-serif" font-size="11" font-weight="bold" lengthAdjust="spacingAndGlyphs" textLength="14" x="248" y="437.2589">PK</text><text fill="#000000" font-family="sans-serif" font-size="11" lengthAdjust="spacingAndGlyphs" textLength="106" x="265" y="437.2589">mech_id    : INTEGER</text><line style="stroke: #A80036; stroke-width: 1.0;" x1="243" x2="376" y1="444.4819" y2="444.4819"/><text fill="#000000" font-family="sans-serif" font-size="11" lengthAdjust="spacingAndGlyphs" textLength="107" x="248" y="460.2408">mech_name     : TEXT</text><text fill="#000000" font-family="sans-serif" font-size="11" lengthAdjust="spacingAndGlyphs" textLength="102" x="248" y="475.2227">hourly_rate   : REAL</text><!--MD5=[a5d022e75c0065b9d5401ddae886f23d]
class order--><rect fill="#FEFECE" filter="url(#f1djw4ewxetenf)" height="107.9276" id="order" style="stroke: #A80036; stroke-width: 1.5;" width="138" x="68.5" y="382"/><ellipse cx="117.75" cy="398" fill="#ADD1B2" rx="11" ry="11" style="stroke: #A80036; stroke-width: 1.0;"/><path d="M121.8594,404 L114.1406,404 L114.1406,391.6094 L121.8594,391.6094 L121.8594,393.7656 L116.5938,393.7656 L116.5938,396.4375 L121.3594,396.4375 L121.3594,398.5938 L116.5938,398.5938 L116.5938,401.8438 L121.8594,401.8438 L121.8594,404 Z "/><text fill="#000000" font-family="sans-serif" font-size="12" lengthAdjust="spacingAndGlyphs" textLength="31" x="138.25" y="402.656">order</text><line style="stroke: #A80036; stroke-width: 1.5;" x1="69.5" x2="205.5" y1="414" y2="414"/><text fill="#FFD700" font-family="sans-serif" font-size="11" font-weight="bold" lengthAdjust="spacingAndGlyphs" textLength="14" x="74.5" y="429.7589">PK</text><text fill="#000000" font-family="sans-serif" font-size="11" lengthAdjust="spacingAndGlyphs" textLength="109" x="91.5" y="429.7589">order_no   : INTEGER</text><line style="stroke: #A80036; stroke-width: 1.0;" x1="69.5" x2="205.5" y1="436.9819" y2="436.9819"/><text fill="#808080" font-family="sans-serif" font-size="11" font-style="italic" lengthAdjust="spacingAndGlyphs" textLength="11" x="74.5" y="452.7408">FK</text><text fill="#000000" font-family="sans-serif" font-size="11" lengthAdjust="spacingAndGlyphs" textLength="74" x="88.5" y="452.7408">plate      : TEXT</text><text fill="#808080" font-family="sans-serif" font-size="11" font-style="italic" lengthAdjust="spacingAndGlyphs" textLength="11" x="74.5" y="467.7227">FK</text><text fill="#000000" font-family="sans-serif" font-size="11" lengthAdjust="spacingAndGlyphs" textLength="103" x="88.5" y="467.7227">cust_no    : INTEGER</text><text fill="#000000" font-family="sans-serif" font-size="11" lengthAdjust="spacingAndGlyphs" textLength="86" x="74.5" y="482.7046">date          : DATE</text><!--MD5=[1ce8ba6c8a732fcbbfcb069291129293]
class work_item--><rect fill="#FEFECE" filter="url(#f1djw4ewxetenf)" height="122.9094" id="work_item" style="stroke: #A80036; stroke-width: 1.5;" width="146" x="150.5" y="569"/><ellipse cx="191.15" cy="585" fill="#ADD1B2" rx="11" ry="11" style="stroke: #A80036; stroke-width: 1.0;"/><path d="M195.2594,591 L187.5406,591 L187.5406,578.6094 L195.2594,578.6094 L195.2594,580.7656 L189.9938,580.7656 L189.9938,583.4375 L194.7594,583.4375 L194.7594,585.5938 L189.9938,585.5938 L189.9938,588.8438 L195.2594,588.8438 L195.2594,591 Z "/><text fill="#000000" font-family="sans-serif" font-size="12" lengthAdjust="spacingAndGlyphs" textLength="57" x="210.85" y="589.656">work_item</text><line style="stroke: #A80036; stroke-width: 1.5;" x1="151.5" x2="295.5" y1="601" y2="601"/><text fill="#FFD700" font-family="sans-serif" font-size="11" font-weight="bold" lengthAdjust="spacingAndGlyphs" textLength="14" x="156.5" y="616.7589">PK</text><text fill="#000000" font-family="sans-serif" font-size="11" lengthAdjust="spacingAndGlyphs" textLength="0" x="173.5" y="616.7589"/><text fill="#808080" font-family="sans-serif" font-size="11" font-style="italic" lengthAdjust="spacingAndGlyphs" textLength="11" x="173.5" y="616.7589">FK</text><text fill="#000000" font-family="sans-serif" font-size="11" lengthAdjust="spacingAndGlyphs" textLength="103" x="187.5" y="616.7589">order_no : INTEGER</text><text fill="#FFD700" font-family="sans-serif" font-size="11" font-weight="bold" lengthAdjust="spacingAndGlyphs" textLength="14" x="156.5" y="631.7408">PK</text><text fill="#000000" font-family="sans-serif" font-size="11" lengthAdjust="spacingAndGlyphs" textLength="108" x="173.5" y="631.7408">item_no     : INTEGER</text><line style="stroke: #A80036; stroke-width: 1.0;" x1="151.5" x2="295.5" y1="638.9638" y2="638.9638"/><text fill="#808080" font-family="sans-serif" font-size="11" font-style="italic" lengthAdjust="spacingAndGlyphs" textLength="11" x="156.5" y="654.7227">FK</text><text fill="#000000" font-family="sans-serif" font-size="11" lengthAdjust="spacingAndGlyphs" textLength="109" x="170.5" y="654.7227">mech_id     : INTEGER</text><text fill="#000000" font-family="sans-serif" font-size="11" lengthAdjust="spacingAndGlyphs" textLength="101" x="156.5" y="669.7046">description    : TEXT</text><text fill="#000000" font-family="sans-serif" font-size="11" lengthAdjust="spacingAndGlyphs" textLength="93" x="156.5" y="684.6865">hours          : REAL</text><!--MD5=[fac8ad388d5e95326ff5dfbcc93048a1]
link customer to vehicle--><path d="M118.15,108.92 C110.99,128.7 102.77,151.4 95.19,172.32 " fill="none" id="customer-vehicle" style="stroke: #A80036; stroke-width: 1.0;"/><line style="stroke: #A80036; stroke-width: 1.0;" x1="95.1605" x2="98.0697" y1="172.4204" y2="181.9879"/><line style="stroke: #A80036; stroke-width: 1.0;" x1="95.1605" x2="86.7903" y1="172.4204" y2="177.8921"/><line style="stroke: #A80036; stroke-width: 1.0;" x1="95.1605" x2="92.43" y1="172.4204" y2="179.94"/><ellipse cx="97.2084" cy="166.7807" fill="none" rx="4" ry="4" style="stroke: #A80036; stroke-width: 1.0;"/><line style="stroke: #A80036; stroke-width: 1.0;" x1="115.8164" x2="123.3377" y1="103.6277" y2="106.3536"/><line style="stroke: #A80036; stroke-width: 1.0;" x1="114.7942" x2="122.3154" y1="106.4481" y2="109.1741"/><line style="stroke: #A80036; stroke-width: 1.0;" x1="118.2141" x2="120.94" y1="108.7513" y2="101.23"/><text fill="#000000" font-family="sans-serif" font-size="13" lengthAdjust="spacingAndGlyphs" textLength="32" x="111.5" y="145.897">owns</text><!--MD5=[1354deb91bfed26f6b464b8920430b02]
link customer to order--><path d="M150.37,109.34 C162.78,168.95 177.86,267.77 164.5,352 C163.37,359.14 161.72,366.51 159.78,373.77 " fill="none" id="customer-order" style="stroke: #A80036; stroke-width: 1.0;"/><line style="stroke: #A80036; stroke-width: 1.0;" x1="159.7613" x2="163.3648" y1="373.8803" y2="383.2085"/><line style="stroke: #A80036; stroke-width: 1.0;" x1="159.7613" x2="151.8152" y1="373.8803" y2="379.9515"/><line style="stroke: #A80036; stroke-width: 1.0;" x1="159.7613" x2="157.59" y1="373.8803" y2="381.58"/><ellipse cx="161.3898" cy="368.1055" fill="none" rx="4" ry="4" style="stroke: #A80036; stroke-width: 1.0;"/><line style="stroke: #A80036; stroke-width: 1.0;" x1="145.5651" x2="153.3916" y1="105.9316" y2="104.2749"/><line style="stroke: #A80036; stroke-width: 1.0;" x1="146.1863" x2="154.0129" y1="108.8666" y2="107.2099"/><line style="stroke: #A80036; stroke-width: 1.0;" x1="150.3067" x2="148.65" y1="109.0166" y2="101.19"/><text fill="#000000" font-family="sans-serif" font-size="13" lengthAdjust="spacingAndGlyphs" textLength="37" x="171.5" y="246.897">places</text><!--MD5=[638f3259b05efc7bd60f8909aefbcaf1]
link vehicle to order--><path d="M94.32,310.94 C101.51,331.59 109.35,354.11 116.35,374.23 " fill="none" id="vehicle-order" style="stroke: #A80036; stroke-width: 1.0;"/><line style="stroke: #A80036; stroke-width: 1.0;" x1="116.3618" x2="124.657" y1="374.254" y2="379.8389"/><line style="stroke: #A80036; stroke-width: 1.0;" x1="116.3618" x2="113.323" y1="374.254" y2="383.7811"/><line style="stroke: #A80036; stroke-width: 1.0;" x1="116.3618" x2="118.99" y1="374.254" y2="381.81"/><ellipse cx="114.3907" cy="368.587" fill="none" rx="4" ry="4" style="stroke: #A80036; stroke-width: 1.0;"/><line style="stroke: #A80036; stroke-width: 1.0;" x1="89.1461" x2="96.7021" y1="308.2321" y2="305.6039"/><line style="stroke: #A80036; stroke-width: 1.0;" x1="90.1317" x2="97.6876" y1="311.0656" y2="308.4374"/><line style="stroke: #A80036; stroke-width: 1.0;" x1="94.2382" x2="91.61" y1="310.696" y2="303.14"/><text fill="#000000" font-family="sans-serif" font-size="13" lengthAdjust="spacingAndGlyphs" textLength="46" x="109.5" y="347.897">used_in</text><!--MD5=[cf50fd515af718f4c8bfc78c1a9a7287]
link order to work_item--><path d="M164.61,497.67 C173.62,517.86 183.73,540.48 192.99,561.2 " fill="none" id="order-work_item" style="stroke: #A80036; stroke-width: 1.0;"/><line style="stroke: #A80036; stroke-width: 1.0;" x1="193.1003" x2="201.8393" y1="561.4442" y2="566.3052"/><line style="stroke: #A80036; stroke-width: 1.0;" x1="193.1003" x2="190.8807" y1="561.4442" y2="571.1948"/><line style="stroke: #A80036; stroke-width: 1.0;" x1="193.1003" x2="196.36" y1="561.4442" y2="568.75"/><line style="stroke: #A80036; stroke-width: 1.0;" x1="195.9382" x2="188.6325" y1="557.9879" y2="561.2476"/><line style="stroke: #A80036; stroke-width: 1.0;" x1="159.2117" x2="166.5146" y1="495.3946" y2="492.1283"/><line style="stroke: #A80036; stroke-width: 1.0;" x1="160.4366" x2="167.7394" y1="498.1331" y2="494.8668"/><line style="stroke: #A80036; stroke-width: 1.0;" x1="164.4963" x2="161.23" y1="497.4128" y2="490.11"/><text fill="#000000" font-family="sans-serif" font-size="13" lengthAdjust="spacingAndGlyphs" textLength="51" x="181.5" y="534.897">contains</text><!--MD5=[252a043bb4111e0f16f9d7d25690e40c]
link mechanic to work_item--><path d="M285.8,490.04 C275.95,512.09 264.39,537.96 253.93,561.39 " fill="none" id="mechanic-work_item" style="stroke: #A80036; stroke-width: 1.0;"/><line style="stroke: #A80036; stroke-width: 1.0;" x1="253.8297" x2="256.0493" y1="561.6042" y2="571.3548"/><line style="stroke: #A80036; stroke-width: 1.0;" x1="253.8297" x2="245.0907" y1="561.6042" y2="566.4652"/><line style="stroke: #A80036; stroke-width: 1.0;" x1="253.8297" x2="250.57" y1="561.6042" y2="568.91"/><ellipse cx="256.2745" cy="556.1249" fill="none" rx="4" ry="4" style="stroke: #A80036; stroke-width: 1.0;"/><line style="stroke: #A80036; stroke-width: 1.0;" x1="283.834" x2="291.1344" y1="484.6344" y2="487.906"/><line style="stroke: #A80036; stroke-width: 1.0;" x1="282.6071" x2="289.9075" y1="487.3721" y2="490.6437"/><line style="stroke: #A80036; stroke-width: 1.0;" x1="285.8484" x2="289.12" y1="489.9204" y2="482.62"/><text fill="#000000" font-family="sans-serif" font-size="13" lengthAdjust="spacingAndGlyphs" textLength="55" x="272.5" y="534.897">performs</text><!--MD5=[77b42959c2149768d5290a229ca8bcd7]
@startuml

entity customer {
    <b><color:gold>PK</color></b> cust_no    : INTEGER
    - -
    cust_name     : TEXT
    cust_city     : TEXT
}

entity vehicle {
    <b><color:gold>PK</color></b> plate    - -
    <i><color:gray>FK</color></i> cust_no    : INTEGER
    make          : TEXT
    model         : TEXT
    year          : INTEGER
}

entity mechanic {
    <b><color:gold>PK</color></b> mech_id    : INTEGER
    - -
    mech_name     : TEXT
    hourly_rate   : REAL
}

entity order {
    <b><color:gold>PK</color></b> order_no   : INTEGER
    - -
    <i><color:gray>FK</color></i> plate      : TEXT
    <i><color:gray>FK</color></i> cust_no    : INTEGER
    date          : DATE
}

entity work_item {
    <b><color:gold>PK</color></b> <i><color:gray>FK</color></i> order_no : INTEGER
    <b><color:gold>PK</color></b> item_no     : INTEGER
    - -
    <i><color:gray>FK</color></i> mech_id     : INTEGER
    description    : TEXT
    hours          : REAL
}

customer ||- -o{ vehicle : owns
customer ||- -o{ order : places
vehicle ||- -o{ order : used_in
order ||- -|{ work_item : contains
mechanic ||- -o{ work_item : performs

@enduml

PlantUML version 1.2020.02(Sun Mar 01 10:22:07 UTC 2020)
(GPL source distribution)
Java Runtime: OpenJDK Runtime Environment
JVM: OpenJDK 64-Bit Server VM
Java Version: 21.0.10+7-Debian-1deb13u1
Operating System: Linux
Default Encoding: UTF-8
Language: en
Country: US
--></g></svg>